<svg width="32" height="32" fill="none" xmlns="http://www.w3.org/2000/svg"><path d="M15 16v-1l-3-2a1 1 0 1 1 2-1l1 1 3-3a1 1 0 0 1 2 2l-4 3-1 1Z" fill="#7B8E98"/><path fill-rule="evenodd" clip-rule="evenodd" d="M16 5a8 8 0 1 0 0 15 8 8 0 0 0 0-15Zm0 14a6 6 0 1 1 0-12 6 6 0 0 1 0 12Z" fill="#7B8E98"/><path fill-rule="evenodd" clip-rule="evenodd" d="M27 15v-2a3 3 0 0 0-1-4 3 3 0 0 0-2-3 3 3 0 0 0-2-3 3 3 0 0 0-4-1 3 3 0 0 0-4 0 3 3 0 0 0-3 1 3 3 0 0 0-3 3 3 3 0 0 0-2 3 3 3 0 0 0-1 4 3 3 0 0 0 1 4 3 3 0 0 0 2 3v1l-2 5a1 1 0 0 0 1 2l3-1 2 3 1 1 1-1 2-5 2 5 1 1 1-1 2-3 3 1a1 1 0 0 0 1-2l-2-5v-1a3 3 0 0 0 2-3l1-2Zm-2-2a1 1 0 0 1 0 2v1a1 1 0 0 1-2 2v1a1 1 0 0 1-2 2h-1a1 1 0 0 1-2 1h-1a1 1 0 0 1-2 0 1 1 0 0 0-1 0 1 1 0 0 1-2-1h-1a1 1 0 0 1-2-2v-1a1 1 0 0 1-2-2v-1a1 1 0 0 1 0-2v-1a1 1 0 0 1 0-2V9a1 1 0 0 1 2-2V6a1 1 0 0 1 2-1l1-1a1 1 0 0 1 2 0h1a1 1 0 0 1 2 0h1a1 1 0 0 1 2 0l1 1a1 1 0 0 1 2 1v1a1 1 0 0 1 2 2v1a1 1 0 0 1 0 2v1Zm-4 12h-1l-1 3-2-4h1a3 3 0 0 0 4-2l2 3h-3Zm-9 0a1 1 0 0 0-1 0H8l2-3h1a3 3 0 0 0 3 2h1l-2 4-1-3Z" fill="#7B8E98"/></svg>